# xmcd
#
# Track frame offsets:
#	183
#	22163
#	39465
#	61460
#	105898
#	123738
#	141805
#	164625
#	183378
#	210448
#
# Disc length: 3059 seconds
#
# Revision: 2
# Processed by: cddbd v1.5.2PL0 Copyright (c) Steve Scherf et al.
# Submitted via: audiograbber 1.83.01
#
DISCID=8d0bf10a
DTITLE=Gary Moore - Milestones CD2
DYEAR=1989
DGENRE=Rock
TTITLE0=Nuclear Atack (live)
TTITLE1=Kidnapped
TTITLE2=She's Got You
TTITLE3=Dallas Warhead (live)
TTITLE4=Lonely Nights
TTITLE5=Because Of Your Love
TTITLE6=Bad News
TTITLE7=You (live)
TTITLE8=Rest In Peace
TTITLE9=You Kissed Me Sweetly
EXTD=
EXTT0=
EXTT1=
EXTT2=
EXTT3=
EXTT4=
EXTT5=
EXTT6=
EXTT7=
EXTT8=
EXTT9=
PLAYORDER=
